<svg width="188" height="28" viewBox="0 0 188 28" fill="none" xmlns="http://www.w3.org/2000/svg">
<path d="M116.047 21.5905C114.749 21.5905 113.609 21.3841 112.626 20.9711C111.642 20.5385 110.856 19.9486 110.266 19.2014C109.676 18.4542 109.322 17.589 109.204 16.6058H113.009C113.127 17.1761 113.442 17.6677 113.953 18.0806C114.484 18.4739 115.162 18.6705 115.988 18.6705C116.814 18.6705 117.414 18.5034 117.787 18.1691C118.181 17.8348 118.377 17.4514 118.377 17.0188C118.377 16.3895 118.102 15.9667 117.551 15.7505C117.001 15.5145 116.234 15.2884 115.251 15.0721C114.621 14.9344 113.982 14.7673 113.333 14.5706C112.685 14.374 112.085 14.1282 111.534 13.8332C111.003 13.5186 110.571 13.1254 110.236 12.6534C109.902 12.1618 109.735 11.5621 109.735 10.8542C109.735 9.55641 110.246 8.46509 111.269 7.58022C112.311 6.69536 113.766 6.25293 115.634 6.25293C117.365 6.25293 118.741 6.65603 119.763 7.46224C120.806 8.26845 121.425 9.37944 121.622 10.7952H118.053C117.836 9.71372 117.02 9.17298 115.605 9.17298C114.897 9.17298 114.346 9.31062 113.953 9.58591C113.579 9.8612 113.392 10.2053 113.392 10.6182C113.392 11.0508 113.678 11.395 114.248 11.6506C114.818 11.9062 115.575 12.1422 116.519 12.3585C117.541 12.5944 118.475 12.8599 119.321 13.1549C120.186 13.4301 120.874 13.8529 121.386 14.4232C121.897 14.9737 122.153 15.7701 122.153 16.8123C122.172 17.7168 121.936 18.5329 121.445 19.2604C120.953 19.988 120.245 20.5582 119.321 20.9711C118.397 21.3841 117.306 21.5905 116.047 21.5905Z" fill="#9198A5"/>
<path d="M124.022 27.7256V6.60687H127.385L127.798 8.70105C128.27 8.05215 128.889 7.4819 129.656 6.99032C130.442 6.49873 131.455 6.25293 132.694 6.25293C134.07 6.25293 135.299 6.58721 136.381 7.25577C137.462 7.92434 138.318 8.83869 138.947 9.99885C139.576 11.159 139.891 12.4765 139.891 13.9512C139.891 15.426 139.576 16.7435 138.947 17.9036C138.318 19.0441 137.462 19.9486 136.381 20.6172C135.299 21.2661 134.07 21.5905 132.694 21.5905C131.593 21.5905 130.629 21.3841 129.803 20.9711C128.978 20.5582 128.309 19.9781 127.798 19.2309V27.7256H124.022ZM131.898 18.2871C133.097 18.2871 134.09 17.884 134.877 17.0777C135.663 16.2715 136.056 15.2294 136.056 13.9512C136.056 12.6731 135.663 11.6211 134.877 10.7952C134.09 9.96935 133.097 9.55642 131.898 9.55642C130.678 9.55642 129.676 9.96935 128.889 10.7952C128.122 11.6014 127.739 12.6436 127.739 13.9217C127.739 15.1999 128.122 16.2519 128.889 17.0777C129.676 17.884 130.678 18.2871 131.898 18.2871Z" fill="#9198A5"/>
<path d="M146.832 21.5905C145.574 21.5905 144.542 21.3939 143.735 21.0006C142.929 20.5877 142.329 20.0469 141.936 19.3784C141.543 18.7098 141.346 17.9724 141.346 17.1662C141.346 15.8094 141.877 14.7083 142.939 13.8627C144.001 13.0172 145.594 12.5944 147.717 12.5944H151.434V12.2405C151.434 11.2377 151.149 10.5003 150.578 10.0283C150.008 9.55641 149.3 9.32045 148.455 9.32045C147.688 9.32045 147.019 9.50726 146.449 9.88086C145.879 10.2348 145.525 10.7657 145.387 11.4736H141.7C141.799 10.4118 142.152 9.48759 142.762 8.70105C143.391 7.9145 144.197 7.31476 145.181 6.90183C146.164 6.46923 147.265 6.25293 148.484 6.25293C150.568 6.25293 152.21 6.77402 153.41 7.81619C154.609 8.85836 155.209 10.3331 155.209 12.2405V21.2366H151.994L151.64 18.877C151.208 19.6635 150.598 20.3124 149.811 20.8237C149.045 21.3349 148.052 21.5905 146.832 21.5905ZM147.688 18.641C148.769 18.641 149.605 18.2871 150.195 17.5792C150.804 16.8713 151.188 15.9962 151.345 14.9541H148.13C147.127 14.9541 146.41 15.1409 145.977 15.5145C145.544 15.8684 145.328 16.3109 145.328 16.8418C145.328 17.412 145.544 17.8545 145.977 18.1691C146.41 18.4837 146.98 18.641 147.688 18.641Z" fill="#9198A5"/>
<path d="M164.505 21.5905C163.01 21.5905 161.693 21.2661 160.552 20.6172C159.412 19.9683 158.507 19.0638 157.839 17.9036C157.19 16.7435 156.865 15.4162 156.865 13.9217C156.865 12.4273 157.19 11.1 157.839 9.93986C158.507 8.7797 159.412 7.87518 160.552 7.22628C161.693 6.57738 163.01 6.25293 164.505 6.25293C166.373 6.25293 167.946 6.74452 169.224 7.7277C170.502 8.69122 171.318 10.0283 171.672 11.7391H167.69C167.493 11.0312 167.1 10.4806 166.51 10.0873C165.94 9.6744 165.262 9.46793 164.475 9.46793C163.433 9.46793 162.548 9.8612 161.82 10.6477C161.093 11.4343 160.729 12.5256 160.729 13.9217C160.729 15.3179 161.093 16.4092 161.82 17.1957C162.548 17.9823 163.433 18.3755 164.475 18.3755C165.262 18.3755 165.94 18.1789 166.51 17.7856C167.1 17.3924 167.493 16.8319 167.69 16.1044H171.672C171.318 17.7561 170.502 19.0834 169.224 20.0863C167.946 21.0891 166.373 21.5905 164.505 21.5905Z" fill="#9198A5"/>
<path d="M180.656 21.5905C179.182 21.5905 177.874 21.2759 176.734 20.6467C175.593 20.0175 174.698 19.1326 174.05 17.9921C173.401 16.8516 173.076 15.5342 173.076 14.0397C173.076 12.5256 173.391 11.1787 174.02 9.99885C174.669 8.81903 175.554 7.90467 176.675 7.25577C177.815 6.58721 179.152 6.25293 180.686 6.25293C182.121 6.25293 183.39 6.56755 184.491 7.19678C185.592 7.82602 186.447 8.69122 187.057 9.79238C187.686 10.8739 188.001 12.0832 188.001 13.4203C188.001 13.6366 187.991 13.8627 187.971 14.0987C187.971 14.3347 187.962 14.5805 187.942 14.8361H176.822C176.901 15.9766 177.294 16.8713 178.002 17.5202C178.729 18.1691 179.604 18.4935 180.627 18.4935C181.394 18.4935 182.033 18.3264 182.544 17.9921C183.075 17.6382 183.468 17.1859 183.724 16.6353H187.558C187.283 17.5595 186.821 18.405 186.172 19.1719C185.543 19.9191 184.756 20.509 183.812 20.9416C182.888 21.3742 181.836 21.5905 180.656 21.5905ZM180.686 9.32045C179.762 9.32045 178.946 9.58591 178.238 10.1168C177.53 10.6281 177.078 11.4146 176.881 12.4765H184.166C184.107 11.5129 183.754 10.7461 183.105 10.1758C182.456 9.60557 181.649 9.32045 180.686 9.32045Z" fill="#9198A5"/>
<path d="M8.67165 21.5906C7.57049 21.5906 6.60697 21.3842 5.7811 20.9712C4.95523 20.5583 4.28666 19.9782 3.77541 19.231L3.36248 21.2367H0V0H3.77541V8.70114C4.24734 8.05225 4.86674 7.482 5.63362 6.99041C6.42017 6.49882 7.43284 6.25303 8.67165 6.25303C10.0481 6.25303 11.2771 6.58731 12.3586 7.25587C13.4401 7.92443 14.2954 8.83879 14.9247 9.99894C15.5539 11.1591 15.8685 12.4766 15.8685 13.9513C15.8685 15.4261 15.5539 16.7436 14.9247 17.9037C14.2954 19.0442 13.4401 19.9487 12.3586 20.6173C11.2771 21.2662 10.0481 21.5906 8.67165 21.5906ZM7.87527 18.2872C9.07475 18.2872 10.0678 17.884 10.8543 17.0778C11.6409 16.2716 12.0341 15.2295 12.0341 13.9513C12.0341 12.6732 11.6409 11.6212 10.8543 10.7953C10.0678 9.96945 9.07475 9.55651 7.87527 9.55651C6.65613 9.55651 5.65329 9.96945 4.86674 10.7953C4.09986 11.6015 3.71642 12.6437 3.71642 13.9218C3.71642 15.2 4.09986 16.252 4.86674 17.0778C5.65329 17.884 6.65613 18.2872 7.87527 18.2872Z" fill="#353C49"/>
<path d="M22.8101 21.5906C21.5516 21.5906 20.5193 21.394 19.7131 21.0007C18.9069 20.5878 18.3071 20.047 17.9138 19.3785C17.5206 18.7099 17.3239 17.9725 17.3239 17.1663C17.3239 15.8095 17.8549 14.7084 18.9167 13.8628C19.9785 13.0173 21.5713 12.5945 23.6949 12.5945H27.4114V12.2406C27.4114 11.2378 27.1262 10.5004 26.556 10.0284C25.9858 9.55651 25.2779 9.32055 24.4323 9.32055C23.6654 9.32055 22.9969 9.50735 22.4266 9.88096C21.8564 10.2349 21.5025 10.7658 21.3648 11.4737H17.6779C17.7762 10.4119 18.1301 9.48769 18.7397 8.70114C19.369 7.9146 20.1752 7.31486 21.1583 6.90192C22.1415 6.46933 23.2427 6.25303 24.4618 6.25303C26.5462 6.25303 28.1881 6.77411 29.3876 7.81628C30.587 8.85845 31.1868 10.3332 31.1868 12.2406V21.2367H27.9718L27.6178 18.8771C27.1852 19.6636 26.5757 20.3125 25.7891 20.8238C25.0222 21.335 24.0292 21.5906 22.8101 21.5906ZM23.6654 18.6411C24.7469 18.6411 25.5827 18.2872 26.1726 17.5793C26.7821 16.8714 27.1656 15.9963 27.3229 14.9542H24.1079C23.105 14.9542 22.3873 15.141 21.9547 15.5146C21.5221 15.8685 21.3058 16.311 21.3058 16.8419C21.3058 17.4121 21.5221 17.8546 21.9547 18.1692C22.3873 18.4838 22.9576 18.6411 23.6654 18.6411Z" fill="#353C49"/>
<path d="M45.9916 21.5906C44.7332 21.5906 43.7008 21.394 42.8946 21.0007C42.0884 20.5878 41.4887 20.047 41.0954 19.3785C40.7021 18.7099 40.5055 17.9725 40.5055 17.1663C40.5055 15.8095 41.0364 14.7084 42.0982 13.8628C43.1601 13.0173 44.7528 12.5945 46.8765 12.5945H50.5929V12.2406C50.5929 11.2378 50.3078 10.5004 49.7375 10.0284C49.1673 9.55651 48.4594 9.32055 47.6139 9.32055C46.847 9.32055 46.1784 9.50735 45.6082 9.88096C45.0379 10.2349 44.684 10.7658 44.5463 11.4737H40.8594C40.9577 10.4119 41.3117 9.48769 41.9213 8.70114C42.5505 7.9146 43.3567 7.31486 44.3399 6.90192C45.3231 6.46933 46.4242 6.25303 47.6434 6.25303C49.7277 6.25303 51.3696 6.77411 52.5691 7.81628C53.7686 8.85845 54.3683 10.3332 54.3683 12.2406V21.2367H51.1533L50.7994 18.8771C50.3668 19.6636 49.7572 20.3125 48.9707 20.8238C48.2038 21.335 47.2108 21.5906 45.9916 21.5906ZM46.847 18.6411C47.9285 18.6411 48.7642 18.2872 49.3541 17.5793C49.9637 16.8714 50.3471 15.9963 50.5044 14.9542H47.2894C46.2866 14.9542 45.5689 15.141 45.1363 15.5146C44.7037 15.8685 44.4874 16.311 44.4874 16.8419C44.4874 17.4121 44.7037 17.8546 45.1363 18.1692C45.5689 18.4838 46.1391 18.6411 46.847 18.6411Z" fill="#353C49"/>
<path d="M56.4964 21.2367V6.60697H59.8293L60.1243 9.08458C60.5766 8.21939 61.2255 7.53116 62.071 7.01991C62.9362 6.50865 63.9489 6.25303 65.109 6.25303C66.9181 6.25303 68.324 6.82327 69.3269 7.96376C70.3297 9.10425 70.8311 10.7757 70.8311 12.978V21.2367H67.0557V13.3319C67.0557 12.0735 66.8001 11.1099 66.2888 10.4414C65.7776 9.77281 64.9812 9.43853 63.8997 9.43853C62.8379 9.43853 61.9628 9.81214 61.2746 10.5594C60.6061 11.3066 60.2718 12.3487 60.2718 13.6859V21.2367H56.4964Z" fill="#353C49"/>
<path d="M80.1339 21.5906C78.6395 21.5906 77.322 21.2662 76.1815 20.6173C75.0411 19.9684 74.1365 19.0639 73.468 17.9037C72.8191 16.7436 72.4946 15.4163 72.4946 13.9218C72.4946 12.4274 72.8191 11.1001 73.468 9.93995C74.1365 8.7798 75.0411 7.87527 76.1815 7.22637C77.322 6.57748 78.6395 6.25303 80.1339 6.25303C82.002 6.25303 83.5751 6.74462 84.8532 7.7278C86.1313 8.69131 86.9474 10.0284 87.3013 11.7392H83.3194C83.1228 11.0313 82.7295 10.4807 82.1396 10.0874C81.5694 9.67449 80.891 9.46803 80.1044 9.46803C79.0623 9.46803 78.1774 9.8613 77.4499 10.6478C76.7223 11.4344 76.3585 12.5257 76.3585 13.9218C76.3585 15.3179 76.7223 16.4093 77.4499 17.1958C78.1774 17.9824 79.0623 18.3756 80.1044 18.3756C80.891 18.3756 81.5694 18.179 82.1396 17.7857C82.7295 17.3925 83.1228 16.832 83.3194 16.1045H87.3013C86.9474 17.7562 86.1313 19.0835 84.8532 20.0864C83.5751 21.0892 82.002 21.5906 80.1339 21.5906Z" fill="#353C49"/>
<path d="M96.2859 21.5906C94.8111 21.5906 93.5035 21.276 92.363 20.6468C91.2225 20.0175 90.3278 19.1327 89.6789 17.9922C89.03 16.8517 88.7056 15.5342 88.7056 14.0398C88.7056 12.5257 89.0202 11.1788 89.6494 9.99894C90.2983 8.81913 91.1832 7.90477 92.304 7.25587C93.4445 6.58731 94.7816 6.25303 96.3154 6.25303C97.7508 6.25303 99.0191 6.56764 100.12 7.19688C101.221 7.82611 102.077 8.69131 102.686 9.79247C103.316 10.874 103.63 12.0833 103.63 13.4204C103.63 13.6367 103.62 13.8628 103.601 14.0988C103.601 14.3348 103.591 14.5806 103.571 14.8362H92.4515C92.5301 15.9767 92.9234 16.8714 93.6313 17.5203C94.3589 18.1692 95.2339 18.4936 96.2564 18.4936C97.0233 18.4936 97.6623 18.3265 98.1736 17.9922C98.7045 17.6383 99.0978 17.186 99.3534 16.6354H103.188C102.913 17.5596 102.45 18.4051 101.802 19.172C101.172 19.9192 100.386 20.5091 99.4419 20.9417C98.5177 21.3743 97.4657 21.5906 96.2859 21.5906ZM96.3154 9.32055C95.3912 9.32055 94.5752 9.58601 93.8673 10.1169C93.1594 10.6282 92.7071 11.4147 92.5105 12.4766H99.7958C99.7369 11.513 99.3829 10.7462 98.734 10.1759C98.0851 9.60567 97.2789 9.32055 96.3154 9.32055Z" fill="#353C49"/>
<path d="M33.3135 21.2367L36.4845 0H40.2599L37.0889 21.2367H33.3135Z" fill="#353C49"/>
</svg>
