<svg width="484" height="229" viewBox="0 0 484 229" fill="none" xmlns="http://www.w3.org/2000/svg">
<path d="M13.2906 16.6818V15.0602H7.95617V12.4991H11.9115V5.20972H9.94142V7.37683H3.97051V5.20972H1.98525V12.4991H5.95576V15.0602H0.651648V16.6818H13.2906ZM9.94142 10.9079H3.97051V8.95291H9.94142V10.9079ZM14.6647 8.69528L15.3315 10.2562C18.0745 10.0137 19.6809 9.04383 20.4234 7.71023C21.1508 9.04383 22.7572 10.0137 25.5002 10.2562L26.1973 8.69528C23.5301 8.45281 22.1814 7.55868 21.8631 6.58879H25.5911V4.99756H15.2709V6.58879H18.9837C18.6655 7.55868 17.3016 8.45281 14.6647 8.69528ZM26.7277 12.3627V10.7866H14.1191V12.3627H26.7277ZM20.3931 13.1204C17.3774 13.1204 15.5588 14.0752 15.5588 15.7119C15.5588 17.3637 17.3774 18.3185 20.3931 18.3185C23.4089 18.3185 25.2426 17.3637 25.2426 15.7119C25.2426 14.0752 23.4089 13.1204 20.3931 13.1204ZM20.3931 16.7727C18.5139 16.7727 17.5744 16.4241 17.5744 15.7119C17.5744 14.9844 18.4988 14.6662 20.3931 14.6662C22.2874 14.6662 23.2119 14.9844 23.2119 15.7119C23.2119 16.4241 22.2723 16.7727 20.3931 16.7727ZM40.2255 11.5898V9.99857H38.4221C38.7404 8.37703 38.7404 7.22528 38.7404 6.08869V4.96725H29.1475V6.55848H36.7703C36.7703 7.52838 36.7248 8.60435 36.4369 9.99857H27.5866V11.5898H40.2255ZM38.6797 13.0446H29.0717V18.1366H38.6797V13.0446ZM36.7248 16.5757H31.0418V14.6056H36.7248V16.5757ZM45.8581 4.04282H44.3729L40.6146 19.0004H42.0997L45.8581 4.04282ZM58.428 18.2881V4.33075H56.5336V18.2881H58.428ZM55.6244 4.57323H53.7603V7.42229H52.154C51.6236 6.07353 50.7597 5.33096 49.608 5.33096C47.744 5.33096 46.5771 7.24044 46.5771 10.3926C46.5771 13.5599 47.744 15.4694 49.608 15.4694C50.7597 15.4694 51.6387 14.6965 52.1691 13.3477H53.7603V17.6668H55.6244V4.57323ZM49.608 13.5902C48.8199 13.5902 48.3653 12.5294 48.3653 10.3926C48.3653 8.2558 48.8199 7.21013 49.608 7.21013C50.3809 7.21013 50.8355 8.2558 50.8355 10.3926C50.8355 12.5294 50.3809 13.5902 49.608 13.5902ZM53.7603 9.02868V11.7262H52.548C52.5934 11.317 52.6238 10.8624 52.6238 10.3926C52.6238 9.90765 52.5934 9.45301 52.5328 9.02868H53.7603ZM71.5014 18.3033V4.34591H69.501V18.3033H71.5014ZM65.3638 8.69528V8.21033H68.2129V6.6191H65.3638V4.67931H63.3634V6.6191H60.4537V8.21033H63.3634V8.69528C63.3634 10.7866 62.2723 13.2114 59.9839 14.2116L61.0599 15.7422C62.6511 15.0299 63.7726 13.6357 64.3939 11.9232C65.0152 13.5144 66.1215 14.848 67.6976 15.4997L68.7584 13.9691C66.4701 12.9992 65.3638 10.6957 65.3638 8.69528ZM86.0297 11.5898V9.99857H84.2263C84.5446 8.37703 84.5446 7.22528 84.5446 6.08869V4.96725H74.9517V6.55848H82.5745C82.5745 7.52838 82.529 8.60435 82.2411 9.99857H73.3908V11.5898H86.0297ZM84.4839 13.0446H74.8759V18.1366H84.4839V13.0446ZM82.529 16.5757H76.846V14.6056H82.529V16.5757ZM97.259 8.95291H99.4867V11.7262H101.487V4.34591H99.4867V7.33137H97.2439C96.8802 5.83106 95.4405 4.86117 93.6674 4.86117C91.576 4.86117 90 6.24023 90 8.14971C90 10.0895 91.576 11.4534 93.6674 11.4534C95.4253 11.4534 96.8953 10.4532 97.259 8.95291ZM91.9094 8.14971C91.9094 7.1192 92.6369 6.51302 93.6674 6.51302C94.6979 6.51302 95.4405 7.1192 95.4405 8.14971C95.4405 9.19538 94.6979 9.80157 93.6674 9.80157C92.6369 9.80157 91.9094 9.19538 91.9094 8.14971ZM100.578 13.4538V12.4082H98.6078V13.4538C98.6078 14.7268 97.9713 15.9846 96.4407 16.7121V12.5294H94.607V13.8933H93.1976V12.5294H91.3487V18.1366H96.4407V17.0909L97.2287 18.2881C98.3805 17.8487 99.0927 17.0758 99.5625 16.1059C100.032 17.0758 100.79 17.8638 101.957 18.2881L102.942 16.803C101.23 16.1968 100.578 14.9087 100.578 13.4538ZM93.1976 15.333H94.607V16.6514H93.1976V15.333ZM104.847 9.71064H114.53V8.1194H106.847V4.84601H104.847V9.71064ZM115.925 12.7416V11.1352H103.286V12.7416H115.925ZM114.606 16.409H106.726V13.8478H104.71V18.0154H114.606V16.409ZM12.2146 40.3336V26.3308H10.2142V40.3336H12.2146ZM3.31886 30.8317V27.4522H1.3336V37.0754H8.21379V27.4522H6.22854V30.8317H3.31886ZM6.22854 35.4841H3.31886V32.3926H6.22854V35.4841ZM26.9551 31.2408V29.589H25.1062V26.3611H23.1058V34.6052H25.1062V31.2408H26.9551ZM21.3024 34.0748L22.3481 32.529C20.1506 31.8319 19.2111 30.2103 19.2111 28.5282V27.1036H17.1803V28.3615C17.1803 30.2558 16.2559 32.1198 13.9069 32.8927L14.9526 34.4688C16.5439 33.9232 17.6198 32.8624 18.226 31.4682C18.817 32.6805 19.8324 33.5898 21.3024 34.0748ZM20.5447 34.9234C17.6198 34.9234 15.8164 35.9236 15.8164 37.6058C15.8164 39.3031 17.6198 40.3033 20.5447 40.3033C23.4543 40.3033 25.2577 39.3031 25.2577 37.6058C25.2577 35.9236 23.4543 34.9234 20.5447 34.9234ZM20.5447 38.7575C18.711 38.7575 17.8017 38.3787 17.8017 37.6058C17.8017 36.848 18.711 36.4692 20.5447 36.4692C22.3178 36.4692 23.2725 36.8329 23.2725 37.6058C23.2725 38.3938 22.3178 38.7575 20.5447 38.7575ZM28.1928 31.6955L28.9202 33.2564C31.3601 32.9079 33.0574 31.9076 33.906 30.4528C34.7547 31.9076 36.452 32.9079 38.8919 33.2564L39.6042 31.6955C36.7551 31.3318 35.3003 29.9982 35.1033 28.6494H39.0586V27.0582H28.708V28.6494H32.724C32.527 29.9982 31.057 31.3318 28.1928 31.6955ZM34.8608 35.6508H40.2104V34.0596H27.6017V35.6508H32.8604V40.3336H34.8608V35.6508ZM54.9404 33.3776H56.9711V31.7106H54.9404V26.3459H52.94V40.3033H54.9404V33.3776ZM49.1513 29.4526V27.4219H47.1358V29.4526C47.1358 32.044 46.075 34.7264 43.726 35.8175L44.9232 37.4391C46.4993 36.6662 47.545 35.1962 48.1511 33.4231C48.7422 35.1356 49.7121 36.4389 51.1669 37.1814L52.3793 35.6054C50.1364 34.5142 49.1513 31.9683 49.1513 29.4526ZM58.9362 32.6654H68.6049V27.0279H58.9362V32.6654ZM60.9063 28.6039H66.6499V31.0893H60.9063V28.6039ZM64.7556 35.7418H70.1203V34.1505H57.4814V35.7418H62.7552V40.3033H64.7556V35.7418ZM80.5266 33.3928H82.527V26.3611H80.5266V33.3928ZM78.5565 33.2261L79.5112 31.6652C77.2532 31.0135 76.253 29.3617 76.253 27.725V26.6793H74.2223V27.725C74.2223 29.4223 73.1917 31.1651 70.8882 31.8925L71.8581 33.4534C73.4948 32.9533 74.6163 31.9076 75.2679 30.574C75.8893 31.7864 76.9652 32.7563 78.5565 33.2261ZM82.8907 40.1972V38.6514H75.2376V37.7876H82.5421V34.0141H73.2372V35.5448H80.5569V36.3631H73.2524V40.1972H82.8907Z" fill="#35C7A5"/>
<path d="M89.1665 19.2732H116.576V20.0309H89.1665V19.2732Z" fill="#35C7A5"/>
<path d="M194.169 38.3599L181.382 25.5732H136.865" stroke="#4FE3C1" stroke-width="1.89432"/>
<path d="M379.843 199.484V197.863H374.509V195.302H378.464V188.012H376.494V190.18H370.523V188.012H368.538V195.302H372.508V197.863H367.204V199.484H379.843ZM376.494 193.711H370.523V191.756H376.494V193.711ZM381.217 191.498L381.884 193.059C384.627 192.816 386.234 191.847 386.976 190.513C387.704 191.847 389.31 192.816 392.053 193.059L392.75 191.498C390.083 191.256 388.734 190.361 388.416 189.392H392.144V187.8H381.824V189.392H385.536C385.218 190.361 383.854 191.256 381.217 191.498ZM393.28 195.165V193.589H380.672V195.165H393.28ZM386.946 195.923C383.93 195.923 382.112 196.878 382.112 198.515C382.112 200.166 383.93 201.121 386.946 201.121C389.962 201.121 391.795 200.166 391.795 198.515C391.795 196.878 389.962 195.923 386.946 195.923ZM386.946 199.575C385.067 199.575 384.127 199.227 384.127 198.515C384.127 197.787 385.052 197.469 386.946 197.469C388.84 197.469 389.765 197.787 389.765 198.515C389.765 199.227 388.825 199.575 386.946 199.575ZM406.778 194.393V192.801H404.975C405.293 191.18 405.293 190.028 405.293 188.891V187.77H395.7V189.361H403.323C403.323 190.331 403.278 191.407 402.99 192.801H394.139V194.393H406.778ZM405.232 195.847H395.624V200.939H405.232V195.847ZM403.278 199.378H397.595V197.408H403.278V199.378ZM412.411 186.846H410.926L407.167 201.803H408.652L412.411 186.846ZM424.981 201.091V187.133H423.086V201.091H424.981ZM422.177 187.376H420.313V190.225H418.707C418.176 188.876 417.312 188.134 416.161 188.134C414.297 188.134 413.13 190.043 413.13 193.195C413.13 196.363 414.297 198.272 416.161 198.272C417.312 198.272 418.191 197.499 418.722 196.15H420.313V200.47H422.177V187.376ZM416.161 196.393C415.373 196.393 414.918 195.332 414.918 193.195C414.918 191.059 415.373 190.013 416.161 190.013C416.934 190.013 417.388 191.059 417.388 193.195C417.388 195.332 416.934 196.393 416.161 196.393ZM420.313 191.831V194.529H419.101C419.146 194.12 419.176 193.665 419.176 193.195C419.176 192.71 419.146 192.256 419.086 191.831H420.313ZM438.054 201.106V187.149H436.054V201.106H438.054ZM431.917 191.498V191.013H434.766V189.422H431.917V187.482H429.916V189.422H427.006V191.013H429.916V191.498C429.916 193.589 428.825 196.014 426.537 197.014L427.613 198.545C429.204 197.833 430.325 196.438 430.947 194.726C431.568 196.317 432.674 197.651 434.25 198.302L435.311 196.772C433.023 195.802 431.917 193.498 431.917 191.498ZM452.582 194.393V192.801H450.779C451.097 191.18 451.097 190.028 451.097 188.891V187.77H441.504V189.361H449.127C449.127 190.331 449.082 191.407 448.794 192.801H439.944V194.393H452.582ZM451.037 195.847H441.429V200.939H451.037V195.847ZM449.082 199.378H443.399V197.408H449.082V199.378ZM465.949 195.044H467.964V187.149H465.949V195.044ZM460.357 194.559C462.539 194.559 464.16 193.165 464.16 191.21C464.16 189.255 462.539 187.861 460.357 187.861C458.205 187.861 456.568 189.255 456.568 191.21C456.568 193.165 458.205 194.559 460.357 194.559ZM460.357 189.528C461.448 189.528 462.205 190.164 462.205 191.21C462.205 192.256 461.448 192.892 460.357 192.892C459.265 192.892 458.523 192.256 458.523 191.21C458.523 190.164 459.265 189.528 460.357 189.528ZM466.555 196.09V195.62H464.585V196.09C464.585 197.12 464.145 198.272 462.993 199.121C461.887 198.348 461.448 197.196 461.448 196.09V195.62H459.508V196.09C459.508 197.423 458.765 198.833 456.901 199.439L457.886 200.894C459.159 200.424 459.993 199.636 460.478 198.606C460.948 199.697 461.736 200.576 463.009 201.045C464.282 200.545 465.07 199.651 465.539 198.56C466.009 199.651 466.843 200.454 468.176 200.894L469.161 199.439C467.297 198.878 466.555 197.53 466.555 196.09ZM471.399 192.513H481.083V190.922H473.4V187.649H471.399V192.513ZM482.477 195.544V193.938H469.838V195.544H482.477ZM481.159 199.212H473.278V196.651H471.263V200.818H481.159V199.212ZM378.767 223.136V209.133H376.767V223.136H378.767ZM369.872 213.634V210.255H367.886V219.878H374.767V210.255H372.781V213.634H369.872ZM372.781 218.287H369.872V215.195H372.781V218.287ZM393.508 214.044V212.392H391.659V209.164H389.659V217.408H391.659V214.044H393.508ZM387.855 216.877L388.901 215.332C386.703 214.635 385.764 213.013 385.764 211.331V209.906H383.733V211.164C383.733 213.059 382.809 214.923 380.46 215.695L381.505 217.272C383.097 216.726 384.173 215.665 384.779 214.271C385.37 215.483 386.385 216.393 387.855 216.877ZM387.097 217.726C384.173 217.726 382.369 218.726 382.369 220.409C382.369 222.106 384.173 223.106 387.097 223.106C390.007 223.106 391.81 222.106 391.81 220.409C391.81 218.726 390.007 217.726 387.097 217.726ZM387.097 221.56C385.264 221.56 384.354 221.181 384.354 220.409C384.354 219.651 385.264 219.272 387.097 219.272C388.87 219.272 389.825 219.636 389.825 220.409C389.825 221.197 388.87 221.56 387.097 221.56ZM394.745 214.498L395.473 216.059C397.913 215.711 399.61 214.71 400.459 213.256C401.307 214.71 403.005 215.711 405.445 216.059L406.157 214.498C403.308 214.135 401.853 212.801 401.656 211.452H405.611V209.861H395.261V211.452H399.277C399.08 212.801 397.61 214.135 394.745 214.498ZM401.414 218.454H406.763V216.862H394.154V218.454H399.413V223.136H401.414V218.454ZM421.493 216.18H423.524V214.513H421.493V209.149H419.493V223.106H421.493V216.18ZM415.704 212.255V210.225H413.689V212.255C413.689 214.847 412.628 217.529 410.279 218.62L411.476 220.242C413.052 219.469 414.098 217.999 414.704 216.226C415.295 217.938 416.265 219.242 417.72 219.984L418.932 218.408C416.689 217.317 415.704 214.771 415.704 212.255ZM425.489 215.468H435.158V209.831H425.489V215.468ZM427.459 211.407H433.203V213.892H427.459V211.407ZM431.308 218.544H436.673V216.953H424.034V218.544H429.308V223.106H431.308V218.544ZM447.079 216.196H449.08V209.164H447.079V216.196ZM445.109 216.029L446.064 214.468C443.806 213.816 442.806 212.164 442.806 210.528V209.482H440.775V210.528C440.775 212.225 439.744 213.968 437.441 214.695L438.411 216.256C440.048 215.756 441.169 214.71 441.821 213.377C442.442 214.589 443.518 215.559 445.109 216.029ZM449.443 223V221.454H441.79V220.59H449.095V216.817H439.79V218.347H447.11V219.166H439.805V223H449.443Z" fill="#35C7A5"/>
<path d="M455.719 202.076H483.129V202.834H455.719V202.076Z" fill="#35C7A5"/>
<path d="M287.463 176.172L315.878 204.587H348.081" stroke="#DFF5F0" stroke-width="1.89432"/>
<path d="M163.525 52.1999C172.829 40.8917 184.544 31.7858 197.823 25.5422C211.101 19.2986 225.609 16.0738 240.294 16.1017L240.168 82.0214C235.31 82.0121 230.511 83.0789 226.118 85.1442C221.726 87.2096 217.85 90.2218 214.773 93.9625L163.525 52.1999Z" fill="#4FE3C2"/>
<path d="M240.106 15.628C262.467 15.628 284.162 23.2723 301.626 37.3044C319.09 51.3365 331.282 70.9213 336.2 92.8394C341.117 114.757 338.467 137.704 328.684 157.908C318.902 178.112 302.569 194.371 282.372 204.011C262.174 213.651 239.313 216.1 217.547 210.954C195.78 205.809 176.404 193.375 162.603 175.697C148.802 158.019 141.397 136.149 141.606 113.682C141.815 91.2145 149.625 69.4873 163.752 52.0716L214.938 93.9935C210.282 99.7341 207.707 106.896 207.638 114.302C207.569 121.707 210.01 128.916 214.559 134.743C219.109 140.57 225.495 144.669 232.67 146.365C239.845 148.061 247.38 147.254 254.038 144.076C260.696 140.899 266.079 135.54 269.304 128.88C272.528 122.22 273.402 114.656 271.781 107.432C270.16 100.207 266.141 93.7512 260.385 89.1258C254.628 84.5005 247.477 81.9808 240.106 81.9808L240.106 15.628Z" fill="#DFF5F0"/>
<path d="M249.235 179.61C253.696 179.61 256.793 177.223 256.793 173.274C256.793 170.858 255.714 168.983 253.213 167.989C255.06 167.051 256.111 165.346 256.111 163.3C256.111 159.805 253.241 157.447 249.235 157.447C245.285 157.447 242.444 159.805 242.444 163.3C242.444 165.346 243.467 166.994 245.285 167.989C242.785 168.983 241.705 170.858 241.705 173.274C241.705 177.223 244.802 179.61 249.235 179.61ZM249.235 166.596C247.047 166.596 246.195 164.834 246.195 163.357C246.195 161.737 247.189 160.459 249.235 160.459C251.281 160.459 252.332 161.737 252.332 163.357C252.332 164.834 251.451 166.596 249.235 166.596ZM249.235 176.485C246.962 176.485 245.655 175.177 245.655 173.217C245.655 170.944 247.047 169.665 249.235 169.665C251.423 169.665 252.9 170.944 252.9 173.217C252.9 175.177 251.508 176.485 249.235 176.485ZM273.502 168.528C273.502 160.97 270.121 157.56 265.575 157.56C261.142 157.56 257.732 160.97 257.732 168.528C257.732 176.03 261.142 179.468 265.575 179.468C270.121 179.468 273.502 176.03 273.502 168.528ZM269.524 168.528C269.524 174.552 267.649 176.172 265.575 176.172C263.614 176.172 261.71 174.552 261.71 168.528C261.71 162.476 263.614 160.828 265.575 160.828C267.649 160.828 269.524 162.476 269.524 168.528ZM274.697 162.902V163.158C274.697 166.454 276.799 168.187 279.783 168.187C282.738 168.187 284.983 166.397 284.983 163.073V162.703C284.983 159.436 282.738 157.759 279.783 157.759C276.799 157.759 274.697 159.606 274.697 162.902ZM294.701 157.901H291.348L277.567 179.07H281.062L294.701 157.901ZM281.829 162.76L281.8 163.13C281.8 165.175 281.232 165.943 279.783 165.943C278.334 165.943 277.709 165.175 277.709 163.13L277.737 162.647C277.737 160.714 278.476 159.947 279.868 159.947C281.147 159.947 281.829 160.714 281.829 162.76ZM287.881 173.387V173.643C287.881 176.939 289.956 178.644 292.939 178.644C295.866 178.644 298.111 176.854 298.111 173.558V173.188C298.111 169.921 295.866 168.273 292.939 168.273C289.956 168.273 287.881 170.063 287.881 173.387ZM294.985 173.245L294.957 173.615C294.957 175.661 294.388 176.399 292.939 176.399C291.49 176.399 290.865 175.661 290.865 173.615L290.893 173.132C290.893 171.199 291.632 170.461 293.024 170.461C294.303 170.461 294.985 171.199 294.985 173.245Z" fill="#4FE3C1"/>
<path d="M197.361 45.1725C194.766 45.1725 192.891 46.5364 192.436 49.4347L194.918 49.8514C194.937 49.4726 194.974 49.1884 195.069 48.9043C195.372 48.0708 196.13 47.3509 197.191 47.3509C198.422 47.3509 199.199 48.0329 199.199 49.34C199.199 50.7986 198.308 51.9352 196.869 53.3749L192.114 58.0539V59.5693H201.983V57.1825H197.437C197.001 57.1825 196.547 57.2014 196.035 57.334L198.971 54.3789C200.373 52.9203 201.775 51.2722 201.832 49.2832C201.832 46.8584 199.994 45.1725 197.361 45.1725ZM213.116 52.5414C213.116 47.5025 210.862 45.2293 207.831 45.2293C204.876 45.2293 202.603 47.5025 202.603 52.5414C202.603 57.5424 204.876 59.8345 207.831 59.8345C210.862 59.8345 213.116 57.5424 213.116 52.5414ZM210.464 52.5414C210.464 56.5574 209.214 57.6371 207.831 57.6371C206.524 57.6371 205.255 56.5574 205.255 52.5414C205.255 48.5065 206.524 47.4078 207.831 47.4078C209.214 47.4078 210.464 48.5065 210.464 52.5414ZM213.755 48.7906V48.9611C213.755 51.1585 215.157 52.3141 217.146 52.3141C219.116 52.3141 220.612 51.1206 220.612 48.9043V48.658C220.612 46.4796 219.116 45.3619 217.146 45.3619C215.157 45.3619 213.755 46.5932 213.755 48.7906ZM227.091 45.4566H224.856L215.668 59.5693H217.998L227.091 45.4566ZM218.51 48.6959L218.491 48.9422C218.491 50.3061 218.112 50.8176 217.146 50.8176C216.18 50.8176 215.763 50.3061 215.763 48.9422L215.782 48.6201C215.782 47.332 216.274 46.8205 217.203 46.8205C218.055 46.8205 218.51 47.332 218.51 48.6959ZM222.545 55.7807V55.9512C222.545 58.1486 223.927 59.2852 225.916 59.2852C227.868 59.2852 229.364 58.0918 229.364 55.8943V55.6481C229.364 53.4696 227.868 52.3709 225.916 52.3709C223.927 52.3709 222.545 53.5643 222.545 55.7807ZM227.28 55.686L227.261 55.9322C227.261 57.2961 226.883 57.7887 225.916 57.7887C224.95 57.7887 224.534 57.2961 224.534 55.9322L224.553 55.6102C224.553 54.3221 225.045 53.8295 225.973 53.8295C226.826 53.8295 227.28 54.3221 227.28 55.686Z" fill="white"/>
<circle cx="135.445" cy="25.5736" r="5.68297" fill="#4FE3C1"/>
<circle cx="348.556" cy="204.587" r="4.73581" fill="#DFF5F0"/>
</svg>
