<svg width="311" height="115" viewBox="0 0 311 115" fill="none" xmlns="http://www.w3.org/2000/svg">
<path fill-rule="evenodd" clip-rule="evenodd" d="M57.2257 114.451C69.9299 114.451 81.6672 110.312 91.1622 103.307C99.1821 97.3914 112.262 97.3915 120.281 103.307C129.776 110.312 141.514 114.451 154.218 114.451C167.009 114.451 178.821 110.255 188.35 103.163C196.719 96.9342 211.021 96.9342 219.39 103.163C228.919 110.255 240.73 114.451 253.522 114.451C285.127 114.451 310.747 88.8306 310.747 57.2257C310.747 25.6208 285.127 0 253.522 0C240.73 0 228.919 4.19686 219.39 11.2887C211.021 17.5172 196.719 17.5172 188.35 11.2887C178.821 4.19686 167.009 0 154.218 0C141.514 0 129.776 4.1398 120.281 11.144C112.262 17.06 99.1821 17.06 91.1622 11.144C81.6672 4.1398 69.9299 0 57.2257 0C25.6208 0 0 25.6208 0 57.2257C0 88.8306 25.6208 114.451 57.2257 114.451Z" fill="#AEE4FF" fill-opacity="0.4"/>
<path d="M243.291 45.476H254.775V38.78H243.291V45.476ZM245.631 40.652H252.453V43.604H245.631V40.652ZM250.203 49.13H256.575V47.24H241.563V49.13H247.827V54.548H250.203V49.13ZM272.568 52.73V50.786H268.932V48.266H271.254V46.358H261.642V44.54H270.876V39.032H259.266V40.922H268.536V42.686H259.284V48.266H261.354V50.786H257.538V52.73H272.568ZM266.592 50.786H263.694V48.266H266.592V50.786ZM239.43 69.06V59.97H237.054V63.75H234.102V60.816H231.78V62.904H228.63V60.816H226.272V68.574H234.102V65.658H237.054V69.06H239.43ZM228.63 64.722H231.78V66.684H228.63V64.722ZM239.43 69.762H237.072V71.238H230.79V69.762H228.45V76.332H239.43V69.762ZM230.79 73.056H237.072V74.46H230.79V73.056ZM252.939 71.886H255.333V59.988H252.939V71.886ZM250.815 65.244C250.815 62.796 248.853 61.032 246.315 61.032C243.777 61.032 241.797 62.796 241.797 65.244C241.797 67.656 243.777 69.438 246.315 69.438C248.853 69.438 250.815 67.656 250.815 65.244ZM244.119 65.244C244.119 63.876 245.091 63.084 246.315 63.084C247.557 63.084 248.493 63.876 248.493 65.244C248.493 66.612 247.557 67.386 246.315 67.386C245.091 67.386 244.119 66.612 244.119 65.244ZM255.747 76.26V74.37H246.675V70.716H244.299V76.26H255.747ZM266.016 64.29H269.04V68.394H271.416V59.97H269.04V62.4H266.016V64.29ZM266.25 68.196L267.456 66.378C264.864 65.604 263.73 63.642 263.73 61.698V60.51H261.336V61.698C261.336 63.804 260.184 65.838 257.43 66.666L258.654 68.52C260.544 67.926 261.84 66.738 262.578 65.154C263.28 66.54 264.504 67.638 266.25 68.196ZM271.884 76.368V74.514H262.848V73.542H271.416V69.096H260.49V70.914H269.076V71.832H260.508V76.368H271.884ZM287.318 69.222V59.97H284.924V69.222H287.318ZM283.826 68.466L283.556 66.576C281.414 66.954 279.47 67.026 276.734 67.026V65.658H282.008V60.726H274.376V62.616H279.668V63.894H274.394V68.934H275.852C279.146 68.934 281.36 68.898 283.826 68.466ZM287.318 69.906H284.96V71.31H278.642V69.906H276.284V76.35H287.318V69.906ZM278.642 73.128H284.96V74.46H278.642V73.128Z" fill="#2DBCFF"/>
<path d="M46.508 54.584V37.952H44.132V54.584H46.508ZM35.942 43.298V39.284H33.584V50.714H41.756V39.284H39.398V43.298H35.942ZM39.398 48.824H35.942V45.152H39.398V48.824ZM64.0128 43.784V41.822H61.8168V37.988H59.4408V47.78H61.8168V43.784H64.0128ZM57.2988 47.15L58.5408 45.314C55.9308 44.486 54.8148 42.56 54.8148 40.562V38.87H52.4028V40.364C52.4028 42.614 51.3048 44.828 48.5148 45.746L49.7568 47.618C51.6468 46.97 52.9248 45.71 53.6448 44.054C54.3468 45.494 55.5528 46.574 57.2988 47.15ZM56.3988 48.158C52.9248 48.158 50.7828 49.346 50.7828 51.344C50.7828 53.36 52.9248 54.548 56.3988 54.548C59.8548 54.548 61.9968 53.36 61.9968 51.344C61.9968 49.346 59.8548 48.158 56.3988 48.158ZM56.3988 52.712C54.2208 52.712 53.1408 52.262 53.1408 51.344C53.1408 50.444 54.2208 49.994 56.3988 49.994C58.5048 49.994 59.6388 50.426 59.6388 51.344C59.6388 52.28 58.5048 52.712 56.3988 52.712ZM65.4796 44.324L66.3436 46.178C69.2416 45.764 71.2576 44.576 72.2656 42.848C73.2736 44.576 75.2896 45.764 78.1876 46.178L79.0336 44.324C75.6496 43.892 73.9216 42.308 73.6876 40.706H78.3856V38.816H66.0916V40.706H70.8616C70.6276 42.308 68.8816 43.892 65.4796 44.324ZM73.3996 49.022H79.7536V47.132H64.7776V49.022H71.0236V54.584H73.3996V49.022ZM45.752 68.322H48.164V66.342H45.752V59.97H43.376V76.548H45.752V68.322ZM38.876 63.66V61.248H36.482V63.66C36.482 66.738 35.222 69.924 32.432 71.22L33.854 73.146C35.726 72.228 36.968 70.482 37.688 68.376C38.39 70.41 39.542 71.958 41.27 72.84L42.71 70.968C40.046 69.672 38.876 66.648 38.876 63.66ZM50.4948 67.476H61.9788V60.78H50.4948V67.476ZM52.8348 62.652H59.6568V65.604H52.8348V62.652ZM57.4068 71.13H63.7788V69.24H48.7668V71.13H55.0308V76.548H57.4068V71.13ZM76.1356 68.34H78.5116V59.988H76.1356V68.34ZM73.7956 68.142L74.9296 66.288C72.2476 65.514 71.0596 63.552 71.0596 61.608V60.366H68.6476V61.608C68.6476 63.624 67.4236 65.694 64.6876 66.558L65.8396 68.412C67.7836 67.818 69.1156 66.576 69.8896 64.992C70.6276 66.432 71.9056 67.584 73.7956 68.142ZM78.9436 76.422V74.586H69.8536V73.56H78.5296V69.078H67.4776V70.896H76.1716V71.868H67.4956V76.422H78.9436Z" fill="#2DBCFF"/>
<path d="M153.423 54.548V37.97H151.173V54.548H153.423ZM150.021 38.24H147.807V43.568H145.737V45.494H147.807V53.81H150.021V38.24ZM144.495 42.11V39.41H142.209V42.2C142.209 45.026 141.327 47.996 138.897 49.472L140.319 51.254C141.831 50.336 142.785 48.806 143.361 46.934C143.883 48.608 144.729 50.012 146.169 50.876L147.465 49.04C145.215 47.546 144.495 44.792 144.495 42.11ZM156.924 45.476H168.408V38.78H156.924V45.476ZM159.264 40.652H166.086V43.604H159.264V40.652ZM163.836 49.13H170.208V47.24H155.196V49.13H161.46V54.548H163.836V49.13ZM145.121 76.584V59.952H142.745V65.154H139.559V67.062H142.745V76.584H145.121ZM137.435 63.642V61.248H135.041V63.642C135.041 66.792 133.799 70.014 130.973 71.31L132.449 73.218C134.321 72.282 135.545 70.608 136.265 68.43C136.967 70.464 138.155 72.048 139.973 72.93L141.377 71.04C138.641 69.834 137.435 66.756 137.435 63.642ZM160.934 76.584V59.952H158.558V76.584H160.934ZM150.368 65.298V61.284H148.01V72.714H156.182V61.284H153.824V65.298H150.368ZM153.824 70.824H150.368V67.152H153.824V70.824ZM176.675 69.762L177.683 67.782C173.939 67.152 171.887 64.524 171.887 62.13V60.942H169.349V62.13C169.349 64.488 167.297 67.152 163.553 67.782L164.561 69.762C167.459 69.204 169.529 67.584 170.609 65.478C171.689 67.584 173.777 69.186 176.675 69.762ZM178.205 74.532V72.606H163.193V74.532H178.205Z" fill="#2DBCFF"/>
</svg>
